<svg xmlns="http://www.w3.org/2000/svg" viewBox="0 0 512 512" role="img" aria-labelledby="title description">
  <title id="title">Sammy K turd crest</title>
  <description id="description">A smiling cartoon turd in a football-style badge.</description>
  <defs>
    <linearGradient id="bg" x1="0" y1="0" x2="1" y2="1">
      <stop offset="0" stop-color="#ffb02e"/>
      <stop offset="1" stop-color="#ff5b7f"/>
    </linearGradient>
    <linearGradient id="poop" x1="0" y1="0" x2="0.8" y2="1">
      <stop offset="0" stop-color="#a85a2c"/>
      <stop offset="1" stop-color="#5f2d18"/>
    </linearGradient>
  </defs>
  <circle cx="256" cy="256" r="244" fill="url(#bg)" stroke="#181430" stroke-width="18"/>
  <circle cx="256" cy="256" r="210" fill="#fff8ee" stroke="#181430" stroke-width="8"/>
  <path fill="url(#poop)" stroke="#181430" stroke-linejoin="round" stroke-width="12" d="M137 368c-28 0-45-21-37-48 7-23 28-38 55-45-18-12-24-31-15-50 10-22 33-34 62-36-14-14-18-34-8-51 10-18 31-29 59-29-4-19 4-41 25-60 2 29 17 47 44 60 21 10 32 28 29 48-2 14-10 25-23 33 27 5 47 21 54 43 6 20-2 37-20 48 28 7 49 22 56 44 8 25-10 45-39 45H137Z"/>
  <ellipse cx="214" cy="252" rx="24" ry="30" fill="#fff"/>
  <ellipse cx="298" cy="252" rx="24" ry="30" fill="#fff"/>
  <circle cx="217" cy="257" r="10" fill="#181430"/>
  <circle cx="295" cy="257" r="10" fill="#181430"/>
  <path d="M205 314c31 30 71 30 102 0" fill="none" stroke="#181430" stroke-linecap="round" stroke-width="13"/>
  <path d="M226 328c18 10 42 10 60 0" fill="none" stroke="#ff8e9e" stroke-linecap="round" stroke-width="8"/>
</svg>
